<?xml version="1.0" standalone="no"?><!-- Generator: Gravit.io --><svg xmlns="http://www.w3.org/2000/svg" xmlns:xlink="http://www.w3.org/1999/xlink" style="isolation:isolate" viewBox="0 0 256 256" width="256" height="256"><defs><clipPath id="_clipPath_23iejFW9n2WIU37fgS5ZIa4K8MCDVlLu"><rect width="256" height="256"/></clipPath></defs><g clip-path="url(#_clipPath_23iejFW9n2WIU37fgS5ZIa4K8MCDVlLu)"><path d=" M 90.292 97.833 L 105.375 97.833 L 97.833 105.375 L 90.292 97.833 Z  M 188.333 37.5 C 204.993 37.5 218.5 51.007 218.5 67.667 L 218.5 128 C 201.84 128 188.333 114.493 188.333 97.833 L 188.333 37.5 Z  M 158.167 248.667 L 37.5 248.667 L 37.5 188.333 C 70.823 188.333 97.833 215.344 97.833 248.667 C 97.833 215.344 124.844 188.333 158.167 188.333 L 158.167 248.667 Z  M 218.5 188.333 L 158.167 188.333 L 158.167 128 C 191.49 128 218.5 155.01 218.5 188.333 Z  M 158.167 248.667 C 158.167 215.344 185.177 188.333 218.5 188.333 L 218.5 248.667 L 158.167 248.667 Z  M 37.5 37.5 L 37.5 7.333 L 67.667 37.5 L 128 37.5 L 158.167 7.333 L 158.167 37.5 L 158.167 67.667 C 158.167 85.616 150.327 101.736 137.887 112.788 L 97.833 82.75 L 57.78 112.788 C 45.34 101.74 37.5 85.616 37.5 67.667 L 37.5 37.5 Z " fill-rule="evenodd" fill="rgb(138,57,57)"/><path d=" M 120.458 82.75 C 116.292 82.75 112.917 79.375 112.917 75.208 C 112.917 71.042 116.292 67.667 120.458 67.667 C 124.625 67.667 128 71.042 128 75.208 C 128 79.375 124.625 82.75 120.458 82.75 Z  M 75.208 82.75 C 71.042 82.75 67.667 79.375 67.667 75.208 C 67.667 71.042 71.042 67.667 75.208 67.667 C 79.375 67.667 82.75 71.042 82.75 75.208 C 82.75 79.375 79.375 82.75 75.208 82.75 Z " fill-rule="evenodd" fill="rgb(255,255,255)"/></g></svg>