<?xml version="1.0" standalone="no"?><!-- Generator: Gravit.io --><svg xmlns="http://www.w3.org/2000/svg" xmlns:xlink="http://www.w3.org/1999/xlink" style="isolation:isolate" viewBox="0 0 256 256" width="256" height="256"><defs><clipPath id="_clipPath_iSghouFS82eVPUtf5BkyAs6cE9lWTPCw"><rect width="256" height="256"/></clipPath></defs><g clip-path="url(#_clipPath_iSghouFS82eVPUtf5BkyAs6cE9lWTPCw)"><polygon points="128,246.357,25.5,187.178,25.5,68.822,128,9.643,230.5,68.822,230.5,187.178" fill="rgb(28,75,108)"/><path d=" M 109.927 113.542 L 117.156 113.542 L 113.542 117.156 L 109.927 113.542 Z  M 156.917 84.625 C 164.901 84.625 171.375 91.099 171.375 99.083 L 171.375 128 C 163.39 128 156.917 121.526 156.917 113.542 L 156.917 84.625 Z  M 142.458 185.833 L 84.625 185.833 L 84.625 156.917 C 100.596 156.917 113.542 169.862 113.542 185.833 C 113.542 169.862 126.487 156.917 142.458 156.917 L 142.458 185.833 Z  M 171.375 156.917 L 142.458 156.917 L 142.458 128 C 158.429 128 171.375 140.946 171.375 156.917 Z  M 142.458 185.833 C 142.458 169.862 155.404 156.917 171.375 156.917 L 171.375 185.833 L 142.458 185.833 Z  M 84.625 84.625 L 84.625 70.167 L 99.083 84.625 L 128 84.625 L 142.458 70.167 L 142.458 84.625 L 142.458 99.083 C 142.458 107.686 138.701 115.412 132.739 120.709 L 113.542 106.312 L 94.345 120.709 C 88.382 115.414 84.625 107.686 84.625 99.083 L 84.625 84.625 Z " fill-rule="evenodd" fill="rgb(138,57,57)"/><path d=" M 124.385 106.312 C 122.388 106.312 120.771 104.695 120.771 102.698 C 120.771 100.701 122.388 99.083 124.385 99.083 C 126.382 99.083 128 100.701 128 102.698 C 128 104.695 126.382 106.312 124.385 106.312 Z  M 102.698 106.312 C 100.701 106.312 99.083 104.695 99.083 102.698 C 99.083 100.701 100.701 99.083 102.698 99.083 C 104.695 99.083 106.312 100.701 106.312 102.698 C 106.312 104.695 104.695 106.312 102.698 106.312 Z " fill-rule="evenodd" fill="rgb(255,255,255)"/></g></svg>