<?xml version="1.0" standalone="no"?><!-- Generator: Gravit.io --><svg xmlns="http://www.w3.org/2000/svg" xmlns:xlink="http://www.w3.org/1999/xlink" style="isolation:isolate" viewBox="0 0 256 256" width="256" height="256"><defs><clipPath id="_clipPath_IKhE3tqvCTELL1Mt93E5zTi7Ci3wdljy"><rect width="256" height="256"/></clipPath></defs><g clip-path="url(#_clipPath_IKhE3tqvCTELL1Mt93E5zTi7Ci3wdljy)"><polygon points="128,246.357,25.5,187.178,25.5,68.822,128,9.643,230.5,68.822,230.5,187.178" fill="rgb(28,75,108)"/><path d=" M 113.208 79.5 L 119.125 79.5 L 116.167 82.458 L 113.208 79.5 Z  M 151.667 55.833 C 158.202 55.833 163.5 61.132 163.5 67.667 L 163.5 91.333 C 156.965 91.333 151.667 86.035 151.667 79.5 L 151.667 55.833 Z  M 139.833 138.667 L 92.5 138.667 L 92.5 115 C 105.571 115 116.167 125.595 116.167 138.667 C 116.167 125.595 126.762 115 139.833 115 L 139.833 138.667 Z  M 163.5 115 L 139.833 115 L 139.833 91.333 C 152.905 91.333 163.5 101.929 163.5 115 Z  M 139.833 138.667 C 139.833 125.595 150.429 115 163.5 115 L 163.5 138.667 L 139.833 138.667 Z  M 92.5 55.833 L 92.5 44 L 104.333 55.833 L 128 55.833 L 139.833 44 L 139.833 55.833 L 139.833 67.667 C 139.833 74.708 136.758 81.031 131.878 85.366 L 116.167 73.583 L 100.455 85.366 C 95.575 81.032 92.5 74.708 92.5 67.667 L 92.5 55.833 Z " fill-rule="evenodd" fill="rgb(138,57,57)"/><path d=" M 80.412 152.779 L 80.412 181.68 L 74.995 181.68 L 74.995 169.049 L 61.444 169.049 L 61.444 181.68 L 56.028 181.68 L 56.028 152.779 L 61.444 152.779 L 61.444 165.211 L 74.995 165.211 L 74.995 152.779 L 80.412 152.779 Z  M 86.288 161.174 L 91.225 161.174 L 91.225 181.68 L 86.288 181.68 L 86.288 161.174 Z  M 91.964 155.198 L 91.964 155.198 L 91.964 155.198 Q 91.964 155.837 91.704 156.397 L 91.704 156.397 L 91.704 156.397 Q 91.444 156.957 91.015 157.376 L 91.015 157.376 L 91.015 157.376 Q 90.585 157.796 90.005 158.046 L 90.005 158.046 L 90.005 158.046 Q 89.426 158.296 88.766 158.296 L 88.766 158.296 L 88.766 158.296 Q 88.127 158.296 87.557 158.046 L 87.557 158.046 L 87.557 158.046 Q 86.987 157.796 86.568 157.376 L 86.568 157.376 L 86.568 157.376 Q 86.148 156.957 85.898 156.397 L 85.898 156.397 L 85.898 156.397 Q 85.648 155.837 85.648 155.198 L 85.648 155.198 L 85.648 155.198 Q 85.648 154.538 85.898 153.959 L 85.898 153.959 L 85.898 153.959 Q 86.148 153.379 86.568 152.959 L 86.568 152.959 L 86.568 152.959 Q 86.987 152.54 87.557 152.29 L 87.557 152.29 L 87.557 152.29 Q 88.127 152.04 88.766 152.04 L 88.766 152.04 L 88.766 152.04 Q 89.426 152.04 90.005 152.29 L 90.005 152.29 L 90.005 152.29 Q 90.585 152.54 91.015 152.959 L 91.015 152.959 L 91.015 152.959 Q 91.444 153.379 91.704 153.959 L 91.704 153.959 L 91.704 153.959 Q 91.964 154.538 91.964 155.198 Z  M 114.249 181.68 L 111.231 181.68 L 111.231 181.68 Q 110.272 181.68 109.972 180.781 L 109.972 180.781 L 109.572 178.802 L 109.572 178.802 Q 108.933 179.522 108.233 180.101 L 108.233 180.101 L 108.233 180.101 Q 107.534 180.681 106.724 181.101 L 106.724 181.101 L 106.724 181.101 Q 105.915 181.52 104.985 181.75 L 104.985 181.75 L 104.985 181.75 Q 104.056 181.98 102.977 181.98 L 102.977 181.98 L 102.977 181.98 Q 101.298 181.98 99.899 181.28 L 99.899 181.28 L 99.899 181.28 Q 98.5 180.581 97.49 179.252 L 97.49 179.252 L 97.49 179.252 Q 96.481 177.923 95.931 175.964 L 95.931 175.964 L 95.931 175.964 Q 95.382 174.005 95.382 171.487 L 95.382 171.487 L 95.382 171.487 Q 95.382 169.209 96.001 167.25 L 96.001 167.25 L 96.001 167.25 Q 96.621 165.291 97.78 163.852 L 97.78 163.852 L 97.78 163.852 Q 98.939 162.413 100.558 161.604 L 100.558 161.604 L 100.558 161.604 Q 102.177 160.794 104.196 160.794 L 104.196 160.794 L 104.196 160.794 Q 105.915 160.794 107.134 161.344 L 107.134 161.344 L 107.134 161.344 Q 108.353 161.893 109.312 162.813 L 109.312 162.813 L 109.312 151.98 L 114.249 151.98 L 114.249 181.68 Z  M 104.656 178.063 L 104.656 178.063 L 104.656 178.063 Q 106.195 178.063 107.274 177.423 L 107.274 177.423 L 107.274 177.423 Q 108.353 176.783 109.312 175.604 L 109.312 175.604 L 109.312 166.41 L 109.312 166.41 Q 108.473 165.391 107.484 164.971 L 107.484 164.971 L 107.484 164.971 Q 106.494 164.552 105.355 164.552 L 105.355 164.552 L 105.355 164.552 Q 104.236 164.552 103.326 164.971 L 103.326 164.971 L 103.326 164.971 Q 102.417 165.391 101.787 166.24 L 101.787 166.24 L 101.787 166.24 Q 101.158 167.09 100.818 168.399 L 100.818 168.399 L 100.818 168.399 Q 100.478 169.708 100.478 171.487 L 100.478 171.487 L 100.478 171.487 Q 100.478 173.286 100.768 174.535 L 100.768 174.535 L 100.768 174.535 Q 101.058 175.784 101.598 176.574 L 101.598 176.574 L 101.598 176.574 Q 102.137 177.363 102.917 177.713 L 102.917 177.713 L 102.917 177.713 Q 103.696 178.063 104.656 178.063 Z  M 137.034 181.68 L 134.016 181.68 L 134.016 181.68 Q 133.057 181.68 132.757 180.781 L 132.757 180.781 L 132.357 178.802 L 132.357 178.802 Q 131.718 179.522 131.018 180.101 L 131.018 180.101 L 131.018 180.101 Q 130.318 180.681 129.509 181.101 L 129.509 181.101 L 129.509 181.101 Q 128.7 181.52 127.77 181.75 L 127.77 181.75 L 127.77 181.75 Q 126.841 181.98 125.761 181.98 L 125.761 181.98 L 125.761 181.98 Q 124.083 181.98 122.684 181.28 L 122.684 181.28 L 122.684 181.28 Q 121.284 180.581 120.275 179.252 L 120.275 179.252 L 120.275 179.252 Q 119.266 177.923 118.716 175.964 L 118.716 175.964 L 118.716 175.964 Q 118.167 174.005 118.167 171.487 L 118.167 171.487 L 118.167 171.487 Q 118.167 169.209 118.786 167.25 L 118.786 167.25 L 118.786 167.25 Q 119.406 165.291 120.565 163.852 L 120.565 163.852 L 120.565 163.852 Q 121.724 162.413 123.343 161.604 L 123.343 161.604 L 123.343 161.604 Q 124.962 160.794 126.981 160.794 L 126.981 160.794 L 126.981 160.794 Q 128.7 160.794 129.919 161.344 L 129.919 161.344 L 129.919 161.344 Q 131.138 161.893 132.097 162.813 L 132.097 162.813 L 132.097 151.98 L 137.034 151.98 L 137.034 181.68 Z  M 127.44 178.063 L 127.44 178.063 L 127.44 178.063 Q 128.979 178.063 130.059 177.423 L 130.059 177.423 L 130.059 177.423 Q 131.138 176.783 132.097 175.604 L 132.097 175.604 L 132.097 166.41 L 132.097 166.41 Q 131.258 165.391 130.268 164.971 L 130.268 164.971 L 130.268 164.971 Q 129.279 164.552 128.14 164.552 L 128.14 164.552 L 128.14 164.552 Q 127.021 164.552 126.111 164.971 L 126.111 164.971 L 126.111 164.971 Q 125.202 165.391 124.572 166.24 L 124.572 166.24 L 124.572 166.24 Q 123.943 167.09 123.603 168.399 L 123.603 168.399 L 123.603 168.399 Q 123.263 169.708 123.263 171.487 L 123.263 171.487 L 123.263 171.487 Q 123.263 173.286 123.553 174.535 L 123.553 174.535 L 123.553 174.535 Q 123.843 175.784 124.382 176.574 L 124.382 176.574 L 124.382 176.574 Q 124.922 177.363 125.702 177.713 L 125.702 177.713 L 125.702 177.713 Q 126.481 178.063 127.44 178.063 Z  M 150.845 160.854 L 150.845 160.854 L 150.845 160.854 Q 152.783 160.854 154.412 161.474 L 154.412 161.474 L 154.412 161.474 Q 156.041 162.093 157.221 163.282 L 157.221 163.282 L 157.221 163.282 Q 158.4 164.472 159.059 166.201 L 159.059 166.201 L 159.059 166.201 Q 159.719 167.929 159.719 170.148 L 159.719 170.148 L 159.719 170.148 Q 159.719 170.708 159.669 171.077 L 159.669 171.077 L 159.669 171.077 Q 159.619 171.447 159.489 171.657 L 159.489 171.657 L 159.489 171.657 Q 159.359 171.867 159.139 171.957 L 159.139 171.957 L 159.139 171.957 Q 158.919 172.047 158.58 172.047 L 158.58 172.047 L 145.908 172.047 L 145.908 172.047 Q 146.128 175.205 147.607 176.684 L 147.607 176.684 L 147.607 176.684 Q 149.086 178.163 151.524 178.163 L 151.524 178.163 L 151.524 178.163 Q 152.724 178.163 153.593 177.883 L 153.593 177.883 L 153.593 177.883 Q 154.462 177.603 155.112 177.263 L 155.112 177.263 L 155.112 177.263 Q 155.762 176.923 156.251 176.644 L 156.251 176.644 L 156.251 176.644 Q 156.741 176.364 157.201 176.364 L 157.201 176.364 L 157.201 176.364 Q 157.5 176.364 157.72 176.484 L 157.72 176.484 L 157.72 176.484 Q 157.94 176.604 158.1 176.823 L 158.1 176.823 L 159.539 178.622 L 159.539 178.622 Q 158.72 179.582 157.7 180.231 L 157.7 180.231 L 157.7 180.231 Q 156.681 180.881 155.572 181.27 L 155.572 181.27 L 155.572 181.27 Q 154.462 181.66 153.313 181.82 L 153.313 181.82 L 153.313 181.82 Q 152.164 181.98 151.085 181.98 L 151.085 181.98 L 151.085 181.98 Q 148.946 181.98 147.107 181.27 L 147.107 181.27 L 147.107 181.27 Q 145.268 180.561 143.909 179.172 L 143.909 179.172 L 143.909 179.172 Q 142.55 177.783 141.771 175.734 L 141.771 175.734 L 141.771 175.734 Q 140.991 173.686 140.991 170.987 L 140.991 170.987 L 140.991 170.987 Q 140.991 168.889 141.671 167.04 L 141.671 167.04 L 141.671 167.04 Q 142.35 165.191 143.62 163.822 L 143.62 163.822 L 143.62 163.822 Q 144.889 162.453 146.718 161.654 L 146.718 161.654 L 146.718 161.654 Q 148.546 160.854 150.845 160.854 Z  M 150.945 164.392 L 150.945 164.392 L 150.945 164.392 Q 148.786 164.392 147.567 165.611 L 147.567 165.611 L 147.567 165.611 Q 146.348 166.83 146.008 169.069 L 146.008 169.069 L 155.282 169.069 L 155.282 169.069 Q 155.282 168.109 155.022 167.26 L 155.022 167.26 L 155.022 167.26 Q 154.762 166.41 154.223 165.771 L 154.223 165.771 L 154.223 165.771 Q 153.683 165.131 152.863 164.761 L 152.863 164.761 L 152.863 164.761 Q 152.044 164.392 150.945 164.392 Z  M 168.673 181.68 L 163.736 181.68 L 163.736 161.174 L 166.754 161.174 L 166.754 161.174 Q 167.714 161.174 168.013 162.073 L 168.013 162.073 L 168.353 163.692 L 168.353 163.692 Q 168.973 163.053 169.662 162.533 L 169.662 162.533 L 169.662 162.533 Q 170.352 162.013 171.121 161.634 L 171.121 161.634 L 171.121 161.634 Q 171.891 161.254 172.77 161.054 L 172.77 161.054 L 172.77 161.054 Q 173.65 160.854 174.689 160.854 L 174.689 160.854 L 174.689 160.854 Q 176.368 160.854 177.667 161.424 L 177.667 161.424 L 177.667 161.424 Q 178.966 161.993 179.835 163.023 L 179.835 163.023 L 179.835 163.023 Q 180.705 164.052 181.155 165.481 L 181.155 165.481 L 181.155 165.481 Q 181.604 166.91 181.604 168.629 L 181.604 168.629 L 181.604 181.68 L 176.668 181.68 L 176.668 168.629 L 176.668 168.629 Q 176.668 166.75 175.798 165.721 L 175.798 165.721 L 175.798 165.721 Q 174.929 164.692 173.19 164.692 L 173.19 164.692 L 173.19 164.692 Q 171.911 164.692 170.791 165.271 L 170.791 165.271 L 170.791 165.271 Q 169.672 165.851 168.673 166.85 L 168.673 166.85 L 168.673 181.68 Z  M 199.752 163.392 L 198.633 165.171 L 198.633 165.171 Q 198.433 165.491 198.213 165.621 L 198.213 165.621 L 198.213 165.621 Q 197.993 165.751 197.654 165.751 L 197.654 165.751 L 197.654 165.751 Q 197.294 165.751 196.884 165.551 L 196.884 165.551 L 196.884 165.551 Q 196.474 165.351 195.935 165.101 L 195.935 165.101 L 195.935 165.101 Q 195.395 164.851 194.706 164.652 L 194.706 164.652 L 194.706 164.652 Q 194.016 164.452 193.077 164.452 L 193.077 164.452 L 193.077 164.452 Q 191.618 164.452 190.778 165.071 L 190.778 165.071 L 190.778 165.071 Q 189.939 165.691 189.939 166.69 L 189.939 166.69 L 189.939 166.69 Q 189.939 167.35 190.368 167.799 L 190.368 167.799 L 190.368 167.799 Q 190.798 168.249 191.508 168.589 L 191.508 168.589 L 191.508 168.589 Q 192.217 168.929 193.117 169.199 L 193.117 169.199 L 193.117 169.199 Q 194.016 169.468 194.955 169.788 L 194.955 169.788 L 194.955 169.788 Q 195.895 170.108 196.794 170.518 L 196.794 170.518 L 196.794 170.518 Q 197.694 170.927 198.403 171.557 L 198.403 171.557 L 198.403 171.557 Q 199.113 172.187 199.542 173.066 L 199.542 173.066 L 199.542 173.066 Q 199.972 173.945 199.972 175.185 L 199.972 175.185 L 199.972 175.185 Q 199.972 176.664 199.432 177.913 L 199.432 177.913 L 199.432 177.913 Q 198.893 179.162 197.853 180.071 L 197.853 180.071 L 197.853 180.071 Q 196.814 180.981 195.285 181.49 L 195.285 181.49 L 195.285 181.49 Q 193.756 182 191.778 182 L 191.778 182 L 191.778 182 Q 190.718 182 189.709 181.81 L 189.709 181.81 L 189.709 181.81 Q 188.7 181.62 187.77 181.28 L 187.77 181.28 L 187.77 181.28 Q 186.841 180.941 186.051 180.481 L 186.051 180.481 L 186.051 180.481 Q 185.262 180.021 184.662 179.482 L 184.662 179.482 L 185.801 177.603 L 185.801 177.603 Q 186.021 177.263 186.321 177.083 L 186.321 177.083 L 186.321 177.083 Q 186.621 176.903 187.081 176.903 L 187.081 176.903 L 187.081 176.903 Q 187.54 176.903 187.95 177.163 L 187.95 177.163 L 187.95 177.163 Q 188.36 177.423 188.899 177.723 L 188.899 177.723 L 188.899 177.723 Q 189.439 178.023 190.169 178.282 L 190.169 178.282 L 190.169 178.282 Q 190.898 178.542 192.017 178.542 L 192.017 178.542 L 192.017 178.542 Q 192.897 178.542 193.526 178.332 L 193.526 178.332 L 193.526 178.332 Q 194.156 178.123 194.566 177.783 L 194.566 177.783 L 194.566 177.783 Q 194.975 177.443 195.165 176.993 L 195.165 176.993 L 195.165 176.993 Q 195.355 176.544 195.355 176.064 L 195.355 176.064 L 195.355 176.064 Q 195.355 175.344 194.925 174.885 L 194.925 174.885 L 194.925 174.885 Q 194.496 174.425 193.786 174.085 L 193.786 174.085 L 193.786 174.085 Q 193.077 173.745 192.167 173.476 L 192.167 173.476 L 192.167 173.476 Q 191.258 173.206 190.308 172.886 L 190.308 172.886 L 190.308 172.886 Q 189.359 172.566 188.45 172.137 L 188.45 172.137 L 188.45 172.137 Q 187.54 171.707 186.831 171.047 L 186.831 171.047 L 186.831 171.047 Q 186.121 170.388 185.692 169.428 L 185.692 169.428 L 185.692 169.428 Q 185.262 168.469 185.262 167.11 L 185.262 167.11 L 185.262 167.11 Q 185.262 165.851 185.762 164.712 L 185.762 164.712 L 185.762 164.712 Q 186.261 163.572 187.231 162.723 L 187.231 162.723 L 187.231 162.723 Q 188.2 161.873 189.649 161.364 L 189.649 161.364 L 189.649 161.364 Q 191.098 160.854 192.997 160.854 L 192.997 160.854 L 192.997 160.854 Q 195.115 160.854 196.854 161.554 L 196.854 161.554 L 196.854 161.554 Q 198.593 162.253 199.752 163.392 L 199.752 163.392 Z " fill-rule="evenodd" fill="rgb(255,255,255)"/><path d=" M 125.042 73.583 C 123.407 73.583 122.083 72.259 122.083 70.625 C 122.083 68.991 123.407 67.667 125.042 67.667 C 126.676 67.667 128 68.991 128 70.625 C 128 72.259 126.676 73.583 125.042 73.583 Z  M 107.292 73.583 C 105.657 73.583 104.333 72.259 104.333 70.625 C 104.333 68.991 105.657 67.667 107.292 67.667 C 108.926 67.667 110.25 68.991 110.25 70.625 C 110.25 72.259 108.926 73.583 107.292 73.583 Z " fill-rule="evenodd" fill="rgb(255,255,255)"/></g></svg>